<svg xmlns="http://www.w3.org/2000/svg" viewBox="0 0 64 64">
  <defs>
    <linearGradient id="bg" x1="0" y1="0" x2="1" y2="1">
      <stop offset="0%" stop-color="#ffc247"/>
      <stop offset="100%" stop-color="#ff8a36"/>
    </linearGradient>
  </defs>
  <rect width="64" height="64" rx="16" fill="#121822"/>
  <rect x="4" y="4" width="56" height="56" rx="14" fill="url(#bg)"/>
  <path
    d="M46 31.2 33.6 28l-7.1-11.5c-.6-1-1.5-1.5-2.6-1.5-1.6 0-2.9 1.3-2.9 2.9v9.2L15 26c-1.7-.2-3 1.1-3 2.8 0 1.2.7 2.2 1.8 2.6l7.2 2.6v9.1l-3.4 2.1a2.6 2.6 0 0 0-1.2 2.2V49l7.5-1.5 4-6.8 4 6.8L39.4 49v-1.6c0-.9-.5-1.8-1.2-2.2L34.8 43v-5.4L46 34.8c1.2-.3 2-1.3 2-2.6 0-.5-.1-.7-.3-1Z"
    fill="#121822"
  />
</svg>
